<?xml version="1.0" encoding="UTF-8" standalone="no"?>
<svg width="284.04" xmlns="http://www.w3.org/2000/svg" xmlns:xlink="http://www.w3.org/1999/xlink" height="236.88">
 <defs>
  <linearGradient id="svg_2" y2=".49994" x2="-.030435" y1=".49994" x1="1.0339">
   <stop id="stop12172" stop-color="#ff6f2e" offset="0"/>
   <stop id="stop12178" stop-color="#ff002e" stop-opacity=".498" offset=".5"/>
   <stop id="stop12174" stop-color="#ff6f2e" stop-opacity="0" offset="1"/>
  </linearGradient>
  <linearGradient id="linearGradient15895" y2=".090935" xlink:href="#linearGradient15826" x2="-.14430" y1=".90204" x1="1.0425"/>
  <linearGradient id="linearGradient15862" y2=".091027" xlink:href="#linearGradient15826" x2="-.14412" y1=".90192" x1="1.0427"/>
  <linearGradient id="linearGradient18126" y2=".49998" xlink:href="#linearGradient18120" y1=".49998" x1=".000036"/>
  <linearGradient id="linearGradient24063" y2=".36668" x2=".93236" y1=".55934" x1=".046096">
   <stop id="stop24053" stop-color="#f38f6c" offset="0"/>
   <stop id="stop24065" stop-color="#f49f8d" offset=".62996"/>
   <stop id="stop24055" stop-color="#f5b0ae" offset="1"/>
  </linearGradient>
  <linearGradient id="svg_1" y2=".49998" xlink:href="#linearGradient18120" x2="-.000032" y1=".49998" x1=".99996"/>
  <linearGradient id="linearGradient20342" y2="0.5" y1="0.5">
   <stop id="stop20330" stop-color="#f5b1ae" offset="0"/>
   <stop id="stop20336" stop-color="#f5b1ae" offset=".64808"/>
   <stop id="stop20338" stop-color="#f38f6c" offset=".98605"/>
   <stop id="stop20326" stop-color="#dc6628" offset="1"/>
  </linearGradient>
  <linearGradient id="linearGradient15889" y2=".10698" xlink:href="#linearGradient15826" x2="1.231" y1=".88521" x1="-.11554"/>
  <linearGradient id="linearGradient15832" y2=".67829" xlink:href="#linearGradient15826" x2="1.1044" y1=".34996" x1="-.11006"/>
  <linearGradient id="linearGradient18120">
   <stop id="stop18122" stop-color="#f5b0ad" offset="0"/>
   <stop id="stop18128" stop-color="#f2aea2" offset=".64317"/>
   <stop id="stop18124" stop-color="#f38f6b" stop-opacity=".27" offset="1"/>
  </linearGradient>
  <linearGradient id="linearGradient15826">
   <stop id="stop15828" offset="0"/>
   <stop id="stop15854" stop-opacity=".749" offset="0"/>
   <stop id="stop15850" stop-opacity=".349" offset="1"/>
  </linearGradient>
  <radialGradient id="radialGradient24081" gradientUnits="userSpaceOnUse" cy="634.53" cx="289.82" gradientTransform="matrix(1.2584 0 0 1.0155 -394.42 -572.57)" r="20.44">
   <stop id="stop24085" stop-color="#f38f6c" offset="0"/>
   <stop id="stop24087" stop-color="#f49f8d" offset=".11013"/>
   <stop id="stop24089" stop-color="#f5b0ae" offset="1"/>
  </radialGradient>
 </defs>
 <g id="svg_9">
  <g id="svg_5" fill-rule="evenodd">
   <path id="path15891" fill="url(#linearGradient15895)" stroke-opacity=".004" d="m197.49 182.99c-2.9027 8.3322-4.5255 13.798-4.5255 13.798l-7.4346-7.8902-10.268 2.6184 1.9464-15.069 20.282 6.543z"/>
   <path id="path15893" d="m208.37 144.79s-11.338 24.819-11.746 37.166c-0.40843 12.348-18.515-5.863-18.515-5.863s-4.7124-13.613-0.91441-23.32c3.7989-9.7087 5.6432-19.694 5.6432-19.694l25.532 11.712z" stroke="#a8160c" stroke-width="2.447" fill="#f4b4a9"/>
   <path id="path15856" fill="url(#linearGradient15862)" stroke-opacity=".004" d="m108.55 188.48c-2.9656 8.5126-4.6234 14.097-4.6234 14.097l-7.596-8.06-10.49 2.674 1.9893-15.395 20.721 6.6845z"/>
   <path id="path15858" d="m119.25 150.61s-11.338 24.819-11.747 37.166c-0.40842 12.347-18.515-5.863-18.515-5.863s-4.7122-13.613-0.91386-23.322c3.7985-9.7077 5.6435-19.693 5.6435-19.693l25.532 11.712z" stroke="#a80f0f" stroke-width="2.447" fill="#f4b0ad"/>
   <path id="path15098" fill="url(#linearGradient15832)" stroke-opacity=".004" d="m123.05 190.8c-3.4835 8.0239-5.9878 13.085-5.9878 13.085l11.266-0.2654 6.2258 9.259 8.8833-12.134-20.387-9.9447z"/>
   <path id="path12910" d="m141.09 155.57s-8.2716 25.848-16.482 34.938c-8.2096 9.0902 18.541 9.1594 18.541 9.1594s13.092-6.303 16.827-15.956c3.7333-9.6521 9.1878-18.094 9.1878-18.094l-28.073-10.047z" stroke="#a90f0f" stroke-width="2.513" fill="#f5b1ae"/>
   <path id="path15883" fill="url(#linearGradient15889)" stroke-opacity=".004" d="m212.37 189.25c1.8853 8.5409 2.8353 14.13 2.8353 14.13l8.6289-7.6024 10.16 3.1296-0.0328-15.29-21.592 5.6328z"/>
   <path id="path15885" d="m206.02 150.2s8.4411 25.786 7.2441 38.362 19.863-5.0738 19.863-5.0738 5.9596-13.44 3.9986-23.674c-1.9373-10.114-3.4023-20.271-3.4023-20.271l-27.704 10.656z" stroke="#a80f0f" stroke-width="2.513" fill="#f4b0ad"/>
  </g>
  <path id="path5616" d="m99.882 170.8" stroke="#bf0100" stroke-width=".386" fill="url(#svg_2)"/>
  <path id="path17392" fill="url(#linearGradient18126)" d="m198.74 141.72a14.126 8.3048 0 1 1 -0.085724 0.12973"/>
  <path id="path18130" fill="url(#svg_1)" d="m251.56 173.06"/>
  <path id="path7796" d="m247.2 111.85a68.298 46.714 0 1 1 -136.6 15.888 68.298 46.714 0 1 1 136.6 -15.888z" stroke="#a80f0f" stroke-width="1.43" fill="#f4b0ae"/>
  <path id="path15860" stroke-width="2" fill="#f4b7a4" d="m97.673 135.06"/>
  <path id="path1729" d="m109.34 164.63c-4.9207 1.148-13.58-0.23335-17.774-2.447-2.3383-1.2342-5.0167-2.8494-5.952-3.5895-2.6153-2.0694-4.782-2.3219-12.275-1.4308-9.4314 1.1216-23.018 0.62839-26.098-0.94742-3.6114-1.8477-5.8683-4.6718-7.4271-9.2934-2.1262-6.3043-1.8017-10.66 1.1815-15.86 2.1889-3.8153 3.3058-4.8068 7.5019-6.6592 4.7539-2.0987 4.9659-2.3289 5.9314-6.4437 0.55073-2.347 1.2334-6.4021 1.5171-9.0113 0.28366-2.6092 1.5041-7.6887 2.7121-11.288 1.8706-5.5732 2.0148-6.6621 0.97185-7.3415-2.0025-1.3044-5.925-0.098137-9.7767 3.0067-6.575 5.3-10.382 5.8359-15.351 2.1614-5.6435-4.1727-7.2414-6.1225-10.64-12.983-1.8102-3.6543-4.2287-7.6067-5.3745-8.7832-1.1838-1.2155-2.3319-3.6682-2.659-5.6805l-0.5757-3.5415 4.1454 0.0705c2.28 0.038795 5.2933-0.36954 6.6963-0.9074 5.1343-1.9683 15.329-7.1445 16.176-8.2132 0.49715-0.62728 2.7541-1.141 5.2592-1.1972 6.84-0.15325 13.679 3.5949 21.958 12.035 5.2586 5.3605 7.3436 6.9403 9.324 7.0648 1.403 0.088234 2.9335-0.14729 3.4011-0.52337 0.46763-0.37604 3.5287-1.6961 6.8022-2.9335 5.0419-1.9058 7.3821-2.2683 15.305-2.3715 7.5429-0.098244 9.8916 0.1675 12.136 1.3731l2.7824 1.4949 2.5631-2.7496c3.5962-3.8578 3.8378-5.7621 1.6573-13.066-2.0976-7.0268-2.5606-18.014-0.93343-22.149 0.50954-1.2951 0.92646-4.9022 0.92646-8.0158 0-3.1137 0.20937-5.8672 0.46529-6.1189 0.82412-0.81073 6.6422 1.4045 10.967 4.1759 2.3129 1.482 4.4712 2.6945 4.7963 2.6945 0.32504 0 3.5046 3.5635 7.0657 7.9188 3.561 4.3554 8.158 9.6226 10.215 11.705 5.1117 5.1738 7.3144 11.971 6.521 20.122-0.31271 3.2122-1.025 6.6535-1.5828 7.6475-1.3482 2.4021-5.6812 4.9361-10.389 6.0755-6.7791 1.6407-10.576 2.8914-12.911 4.2521l-2.2824 1.3304 2.0523 3.3046c3.5134 5.6572 6.3219 11.595 6.3306 13.384 0.004578 0.94309 0.33955 2.0723 0.74442 2.5093 1.8131 1.9573 2.6532 13.284 1.5808 21.316-0.9198 6.8887-1.5798 8.8601-4.8461 14.476-2.0797 3.5757-5.4224 8.3925-7.4283 10.704 0 0-7.4158 6.6978-12.319 9.3715-6.4455 3.5148-12.922 5.3138-13.092 5.3534z" stroke="#a90f0f" stroke-width="2.5" fill="#f4b0ae"/>
  <path id="path19592" fill="url(#linearGradient20342)" d="m102.47 72.493a39.162 42.263 0 1 1 -0.000015 0"/>
  <path id="path24037" d="m59.921 124.62l11.659-4.4795s22.132-0.064766 17.553 15.46c-4.5789 15.525-17.13 17.324-17.13 17.324s4.7623-22.515-11.527-24.408" fill-rule="evenodd" stroke-width=".997" fill="url(#linearGradient24063)"/>
  <path id="path3396" d="m55.739 123.53" stroke="#a80e0f" stroke-width="2.207" fill="url(#radialGradient24081)"/>
  <g stroke-width="2.164" stroke="#a0600c">
   <path id="path3401" fill="#ec8ba8" d="m52.43 141.37a3.3467 2.9057 0 1 1 -6.6934 0 3.3467 2.9057 0 1 1 6.6934 0z"/>
   <path id="path3403" fill="#ec8aa9" d="m65.197 142.1a3.3467 2.9057 0 1 1 -6.6934 0 3.3467 2.9057 0 1 1 6.6934 0z"/>
  </g>
  <g stroke-width=".9" stroke="#000">
   <path id="path4137" d="m67.566 110.71a2.1462 2.0963 0 1 1 -0.006386 0"/>
   <path id="path5596" d="m88.637 113.37a2.1462 2.0963 0 1 1 -0.006493 -0.000023"/>
  </g>
  <g id="svg_6" fill-rule="evenodd" transform="rotate(9.192 249.14 81.19)">
   <g fill="none">
    <path id="path1392" stroke-width="8" stroke="#a80f0f" d="m240.32 97.88c13.195-13.849 15.998-24.522 7.8356-29.408-6.9864-4.1807-19.633 4.0337-9.1858 13.363"/>
    <path id="path6494" stroke-width="4.25" stroke="#f5b1ae" d="m240.24 98.088c13.196-13.849 16.066-24.658 7.9028-29.544-6.9855-4.1808-19.633 4.0337-9.1859 13.363"/>
    <path id="path10126" stroke-width="8" stroke="#a80f0f" d="m238.72 81.616c13.956 13.067 24.023-0.71316 28.708-9.0466"/>
    <path id="path2862" stroke-width="4.25" stroke="#f5b0af" d="m238.55 81.627c13.956 13.067 24.023-0.71315 28.707-9.0466"/>
   </g>
   <path id="path13768" stroke-width="1.875" stroke="#a80f0f" d="m264.23 71.767l5.5332 3.2184"/>
  </g>
  <ellipse id="svg_3" rx="6.5552" ry="1.2973" stroke="#ff5656" transform="rotate(252.98 99.489 137.52)" cy="137.52" cx="99.489" stroke-width="5" fill="#ff5656"/>
  <path id="path3409" d="m80.875 156.66c25.038-8.233 31.484-16.224 26.526-27.847" stroke="#a80f0f" stroke-width="2.1" fill="none"/>
 </g>
</svg>
